<svg width="120" height="46" viewBox="0 0 120 46" fill="none" xmlns="http://www.w3.org/2000/svg">
<path d="M39.575 33V14.275H39.6L49.2 27.9L48.075 27.675L57.65 14.275H57.7V33H55.1V20.2L55.25 21.525L48.55 31.05H48.5L41.65 21.525L42.1 20.3V33H39.575ZM61.6172 38.025L68.4922 22.55H70.8172L64.0672 38.025H61.6172ZM64.2172 33.075L59.1922 22.55H62.0172L66.1922 31.8L64.2172 33.075ZM71.0922 26.475H75.7422V28.675H71.0922V26.475ZM92.685 31.4C92.435 31.6167 92.085 31.8333 91.635 32.05C91.185 32.2667 90.6766 32.4667 90.11 32.65C89.56 32.8167 88.9933 32.95 88.41 33.05C87.8266 33.15 87.2766 33.2 86.76 33.2C84.8266 33.2 83.1516 32.8167 81.735 32.05C80.3183 31.2667 79.2183 30.2083 78.435 28.875C77.6683 27.5417 77.285 26.025 77.285 24.325C77.285 22.775 77.5266 21.4 78.01 20.2C78.51 19 79.1933 17.9917 80.06 17.175C80.9266 16.3583 81.91 15.7417 83.01 15.325C84.1266 14.8917 85.31 14.675 86.56 14.675C87.6433 14.675 88.6433 14.8 89.56 15.05C90.4766 15.3 91.2766 15.6167 91.96 16L91.085 18.425C90.7516 18.225 90.335 18.0417 89.835 17.875C89.3516 17.6917 88.8433 17.55 88.31 17.45C87.7933 17.35 87.3183 17.3 86.885 17.3C85.485 17.3 84.2683 17.575 83.235 18.125C82.2016 18.675 81.4016 19.4583 80.835 20.475C80.2683 21.4917 79.985 22.7 79.985 24.1C79.985 25.3833 80.2683 26.5167 80.835 27.5C81.4183 28.4667 82.2183 29.225 83.235 29.775C84.2683 30.325 85.46 30.6 86.81 30.6C87.41 30.6 87.9933 30.5417 88.56 30.425C89.1433 30.3083 89.635 30.1333 90.035 29.9V26.55H86.51V24.025H92.685V31.4ZM95.1332 22.55H97.6582V33H95.1332V22.55ZM95.0082 18.8C95.0082 18.4167 95.1582 18.0917 95.4582 17.825C95.7749 17.5583 96.1165 17.425 96.4832 17.425C96.8499 17.425 97.1832 17.5583 97.4832 17.825C97.7832 18.0917 97.9332 18.4167 97.9332 18.8C97.9332 19.2167 97.7832 19.55 97.4832 19.8C97.1832 20.05 96.8499 20.175 96.4832 20.175C96.1165 20.175 95.7749 20.05 95.4582 19.8C95.1582 19.55 95.0082 19.2167 95.0082 18.8ZM102.353 22.55L102.603 25.55L102.503 25.15C102.786 24.5167 103.178 23.975 103.678 23.525C104.195 23.075 104.728 22.7333 105.278 22.5C105.845 22.25 106.32 22.125 106.703 22.125L106.578 24.625C105.795 24.575 105.103 24.725 104.503 25.075C103.92 25.425 103.461 25.8917 103.128 26.475C102.795 27.0583 102.628 27.6833 102.628 28.35V33H100.103V22.55H102.353ZM106.785 27.675C106.785 26.625 107.035 25.6833 107.535 24.85C108.035 24 108.727 23.3333 109.61 22.85C110.493 22.3667 111.502 22.125 112.635 22.125C113.785 22.125 114.785 22.3667 115.635 22.85C116.502 23.3333 117.168 24 117.635 24.85C118.118 25.6833 118.36 26.625 118.36 27.675C118.36 28.725 118.118 29.675 117.635 30.525C117.152 31.3583 116.477 32.025 115.61 32.525C114.76 33.0083 113.752 33.25 112.585 33.25C111.485 33.25 110.493 33.025 109.61 32.575C108.743 32.125 108.052 31.4833 107.535 30.65C107.035 29.8 106.785 28.8083 106.785 27.675ZM109.335 27.7C109.335 28.35 109.477 28.9417 109.76 29.475C110.043 29.9917 110.427 30.4083 110.91 30.725C111.41 31.025 111.96 31.175 112.56 31.175C113.51 31.175 114.285 30.8417 114.885 30.175C115.502 29.5083 115.81 28.6833 115.81 27.7C115.81 26.7167 115.502 25.8917 114.885 25.225C114.285 24.5417 113.51 24.2 112.56 24.2C111.943 24.2 111.393 24.3583 110.91 24.675C110.427 24.9917 110.043 25.4167 109.76 25.95C109.477 26.4833 109.335 27.0667 109.335 27.7Z" fill="white"/>
<path d="M25.0138 23.0367L24.6968 23.6179L18.0997 35.6779L24.0726 45.8414L36.6298 22.8839L23.3321 0.263483L17.6919 10.5797L24.678 22.461L25.0138 23.0367Z" fill="#E5C5FF"/>
<path d="M12.4365 12.2897L17.1227 3.72023L28.394 22.8989L17.7505 42.3629L12.788 33.9233L11.831 35.6671L17.8069 45.8305L30.3611 22.8731L17.0663 0.252579L11.4232 10.5688L12.4365 12.2897Z" fill="#373737"/>
<path d="M12.2527 25.9125L12.2437 25.9066L12.3035 29.5826L20.2195 15.1064L19.1545 13.2926L12.2527 25.9125Z" fill="white"/>
<path d="M12.3334 30.9388L12.3244 30.9329L12.3842 34.609L21.6845 17.5978L20.6194 15.787L12.3334 30.9388Z" fill="white"/>
<path d="M23.5522 20.7757L12.4965 40.9883L12.4875 40.9824L12.5596 45.4166L24.8371 22.9643L23.5522 20.7757Z" fill="white"/>
<path d="M12.415 35.9651L12.406 35.9592L12.4657 39.6322L23.1524 20.0922L22.0873 18.2814L12.415 35.9651Z" fill="white"/>
<path d="M12.1709 20.8892L12.1619 20.8833L12.2216 24.5594L18.7545 12.612L17.6894 10.8012L12.1709 20.8892Z" fill="white"/>
<path d="M12.089 15.863L12.08 15.8571L12.1397 19.5332L17.2864 10.1177L16.2214 8.30691L12.089 15.863Z" fill="white"/>
<path d="M13.6303 3.89952L11.9445 6.98222L11.9355 6.9763L11.9762 9.4834L14.3565 5.12869L13.6303 3.89952Z" fill="white"/>
<path d="M12.0073 10.8398L11.9983 10.8338L12.058 14.5069L15.8215 7.62332L14.7565 5.81249L12.0073 10.8398Z" fill="white"/>
<path d="M0.207291 22.6257L11.5503 0.541779L11.9647 44.5335L0.207291 22.6257Z" fill="#653AC2"/>
</svg>
